<?xml version="1.0" standalone="no"?>
<!DOCTYPE svg PUBLIC "-//W3C//DTD SVG 20010904//EN"
 "http://www.w3.org/TR/2001/REC-SVG-20010904/DTD/svg10.dtd">
<svg version="1.0" xmlns="http://www.w3.org/2000/svg"
 width="2002.000000pt" height="2002.000000pt" viewBox="0 0 2002.000000 2002.000000"
 preserveAspectRatio="xMidYMid meet">
<metadata>
Created by potrace 1.14, written by Peter Selinger 2001-2017
</metadata>
<g transform="translate(0.000000,2002.000000) scale(0.100000,-0.100000)"
fill="#000000" stroke="none">
<path d="M5897 16524 c-1 -1 -54 -4 -117 -8 -63 -3 -124 -8 -135 -10 -11 -2
-45 -7 -75 -10 -378 -44 -803 -198 -1160 -420 -92 -57 -251 -172 -315 -227
-335 -291 -562 -572 -747 -929 -115 -222 -217 -500 -263 -716 -2 -11 -10 -50
-19 -89 -16 -75 -32 -188 -44 -300 -15 -144 -5 -665 14 -696 1 -3 6 -28 9 -55
3 -27 8 -60 11 -74 3 -14 8 -36 10 -50 3 -14 7 -38 11 -55 4 -16 8 -34 9 -40
19 -90 87 -311 123 -403 12 -29 21 -56 21 -60 0 -4 -21 -24 -47 -44 -27 -21
-67 -54 -89 -75 -23 -21 -66 -58 -95 -83 -138 -116 -467 -447 -575 -578 -10
-13 -32 -38 -48 -55 -45 -51 -230 -289 -278 -358 -25 -35 -65 -93 -89 -129
-42 -61 -134 -208 -193 -310 -55 -95 -226 -450 -269 -560 -125 -320 -213 -654
-253 -955 -3 -27 -8 -61 -10 -75 -26 -199 -26 -737 0 -890 3 -14 7 -49 10 -78
3 -29 8 -63 11 -75 2 -12 6 -35 9 -52 31 -223 126 -563 233 -835 75 -191 217
-474 342 -682 112 -186 296 -442 466 -647 140 -169 442 -479 615 -630 52 -46
109 -96 125 -110 82 -74 399 -319 505 -391 19 -13 37 -27 40 -30 23 -27 665
-430 685 -430 2 0 28 -14 57 -32 62 -37 538 -277 648 -327 106 -48 373 -163
385 -166 6 -1 21 -7 35 -12 321 -135 838 -307 1255 -418 162 -43 447 -113 525
-129 14 -3 34 -7 45 -9 32 -8 327 -66 360 -72 140 -24 389 -65 425 -70 25 -3
56 -8 70 -10 14 -2 43 -7 65 -9 97 -12 132 -17 155 -21 14 -2 53 -7 87 -10 34
-3 70 -7 80 -9 10 -2 52 -7 93 -10 41 -4 93 -9 115 -11 79 -9 171 -16 225 -20
30 -2 99 -6 152 -10 174 -12 210 -13 443 -21 457 -15 1099 -1 1425 31 25 3 81
7 125 10 44 3 91 8 105 10 14 2 63 7 110 10 47 4 93 9 103 11 10 2 62 8 116
14 53 6 108 12 121 15 14 2 48 6 75 10 49 5 78 10 140 20 17 3 50 7 75 10 25
3 54 8 66 10 12 3 39 7 60 11 49 7 350 61 384 69 14 2 36 7 50 10 64 12 149
30 193 40 12 3 33 7 47 10 14 3 40 9 58 14 18 5 35 10 37 10 28 3 362 86 506
126 584 164 1120 360 1654 608 98 45 440 217 520 262 316 176 482 278 738 454
129 88 206 145 406 296 14 10 80 64 146 119 761 635 1296 1336 1610 2111 74
182 155 433 190 585 18 77 64 328 70 375 4 32 9 68 11 78 2 11 6 54 9 96 3 42
8 94 11 116 7 47 7 443 0 500 -2 22 -7 80 -11 128 -3 48 -8 96 -10 105 -1 9
-10 67 -19 127 -9 61 -21 130 -27 155 -129 589 -324 1052 -655 1555 -66 101
-210 303 -224 315 -3 3 -13 14 -21 26 -8 11 -30 41 -51 65 -20 24 -53 64 -73
89 -87 106 -171 196 -350 375 -193 194 -223 221 -401 372 l-102 86 18 42 c16
38 87 248 96 285 1 8 12 53 24 99 60 246 85 458 84 731 -1 221 -19 399 -59
600 -11 55 -14 68 -34 145 -169 654 -558 1238 -1096 1647 -271 206 -618 380
-951 477 -94 28 -276 68 -339 76 -27 3 -61 8 -75 10 -32 6 -96 13 -185 20 -84
8 -386 8 -435 1 -19 -3 -62 -8 -95 -11 -54 -6 -192 -26 -270 -41 -67 -12 -236
-57 -320 -86 -493 -166 -917 -441 -1260 -819 -125 -137 -169 -194 -286 -370
-42 -63 -88 -136 -103 -164 -15 -27 -37 -68 -49 -90 -59 -106 -144 -306 -178
-414 l-21 -63 -91 6 c-51 4 -121 9 -157 11 -36 3 -92 7 -125 10 -361 28 -1314
28 -1690 0 -33 -2 -96 -7 -140 -10 -86 -6 -171 -14 -221 -20 -32 -5 -32 -4
-64 88 -82 235 -254 566 -393 752 -158 212 -373 439 -552 580 -27 22 -52 43
-55 46 -9 11 -193 135 -260 176 -159 97 -379 202 -530 253 -36 12 -74 26 -85
31 -75 32 -346 93 -530 118 -99 14 -429 32 -438 25z"/>
</g>
</svg>
